<svg xmlns="http://www.w3.org/2000/svg" xmlns:xlink="http://www.w3.org/1999/xlink" id="Capa_2" x="0px" y="0px" viewBox="0 0 227.3 59.1" style="enable-background:new 0 0 227.3 59.1;" xml:space="preserve"><style type="text/css">	.st0{enable-background:new    ;}	.st1{fill:#F9F9F9;}	.st2{fill:#FFB900;}	.st3{fill:none;}	.st4{fill:#00AB47;}	.st5{fill:#FE2B25;}	.st6{fill:#1F87FC;}</style><g id="Layer_5">	<g>		<g class="st0">			<path class="st1" d="M78.8,5.9v3.4H67.3v6.8c0.9-1.2,2.9-2.3,5.2-2.3c6.1,0,8,4.6,8,8.3c0,5-2.8,8.7-8.6,8.7    c-5.1,0-8.1-2.8-8.7-6.7h3.8c0.5,2.1,2.3,3.5,4.9,3.5c3.4,0,4.9-2.3,4.9-5.4c0-3.3-1.6-5.1-4.9-5.1c-2.3,0-3.8,1.3-4.5,3.1h-3.7    V5.9H78.8z"></path>			<path class="st1" d="M86.6,31.2c-1.4,0-2.5-1.1-2.5-2.5c0-1.4,1.1-2.5,2.5-2.5c1.4,0,2.5,1.1,2.5,2.5    C89.1,30.1,88,31.2,86.6,31.2z"></path>			<path class="st1" d="M101.6,5.6c7,0,8.9,5.5,8.9,12.6c0,7.3-1.9,12.7-8.9,12.7s-8.9-5.5-8.9-12.7C92.7,11,94.6,5.6,101.6,5.6z     M101.6,9.1c-4.6,0-5.1,4.4-5.1,9c0,4.9,0.5,9.2,5.1,9.2s5.1-4.3,5.1-9.2C106.7,13.5,106.2,9.1,101.6,9.1z"></path>		</g>		<g class="st0">			<path class="st1" d="M76.1,44.6H73c-0.6-1.1-1.7-1.7-3.1-1.7c-2.4,0-4,1.7-4,4.3c0,2.7,1.7,4.4,4.2,4.4c2.1,0,3.4-1.2,3.8-3.1    h-4.6v-2h7.2v2.3c-0.5,2.7-3,5.2-6.5,5.2c-3.9,0-6.8-2.8-6.8-6.8s2.9-6.8,6.8-6.8C72.9,40.5,75.2,42,76.1,44.6z"></path>			<path class="st1" d="M84.6,54.1c-3.8,0-6.8-2.8-6.8-6.8c0-4,3.1-6.8,6.8-6.8c3.8,0,6.8,2.8,6.8,6.8    C91.4,51.2,88.3,54.1,84.6,54.1z M84.6,51.7c2.4,0,4.1-1.7,4.1-4.4c0-2.7-1.7-4.4-4.1-4.4c-2.4,0-4.1,1.7-4.1,4.4    C80.5,49.9,82.2,51.7,84.6,51.7z"></path>			<path class="st1" d="M99.5,54.1c-3.8,0-6.8-2.8-6.8-6.8c0-4,3.1-6.8,6.8-6.8c3.8,0,6.8,2.8,6.8,6.8    C106.3,51.2,103.3,54.1,99.5,54.1z M99.5,51.7c2.4,0,4.1-1.7,4.1-4.4c0-2.7-1.7-4.4-4.1-4.4c-2.4,0-4.1,1.7-4.1,4.4    C95.4,49.9,97.1,51.7,99.5,51.7z"></path>			<path class="st1" d="M120.6,44.6h-3.1c-0.6-1.1-1.7-1.7-3.1-1.7c-2.4,0-4,1.7-4,4.3c0,2.7,1.7,4.4,4.2,4.4c2.1,0,3.4-1.2,3.8-3.1    h-4.6v-2h7.2v2.3c-0.5,2.7-3,5.2-6.5,5.2c-3.9,0-6.8-2.8-6.8-6.8s2.9-6.8,6.8-6.8C117.4,40.5,119.8,42,120.6,44.6z"></path>			<path class="st1" d="M125.6,40.6v11.2h4.4v2.1h-7V40.6H125.6z"></path>			<path class="st1" d="M139.4,42.8h-5v3.3h4.5v2.1h-4.5v3.5h5v2.2h-7.7V40.6h7.7V42.8z"></path>			<path class="st1" d="M151.3,40.6c3.2,0,4.8,1.8,4.8,4.1c0,1.6-0.9,3.3-3,3.8l3.2,5.4h-3.1l-2.9-5.2H149v5.2h-2.7V40.6H151.3z     M151.2,42.8H149v3.9h2.2c1.5,0,2.2-0.8,2.2-2C153.4,43.6,152.7,42.8,151.2,42.8z"></path>			<path class="st1" d="M166.2,42.8h-5v3.3h4.5v2.1h-4.5v3.5h5v2.2h-7.7V40.6h7.7V42.8z"></path>			<path class="st1" d="M177.8,40.6h2.8l-4.9,13.3h-3.2l-4.9-13.3h2.9l3.7,10.6L177.8,40.6z"></path>			<path class="st1" d="M182.2,40.6h2.7v13.3h-2.7V40.6z"></path>			<path class="st1" d="M195.2,42.8h-5v3.3h4.5v2.1h-4.5v3.5h5v2.2h-7.7V40.6h7.7V42.8z"></path>			<path class="st1" d="M196.7,40.6h2.9l2.3,10.3l2.7-10.3h3l2.6,10.3l2.4-10.3h2.9l-3.7,13.3h-3.1l-2.5-9.5l-2.6,9.5l-3.1,0    L196.7,40.6z"></path>			<path class="st1" d="M221.7,54.1c-2.8,0-4.9-1.4-4.9-4h2.9c0.1,1.1,0.8,1.8,2,1.8c1.3,0,2-0.7,2-1.6c0-2.9-6.9-1.1-6.8-6    c0-2.4,1.9-3.8,4.7-3.8c2.7,0,4.6,1.4,4.8,3.8h-2.9c-0.1-0.9-0.8-1.6-1.9-1.6c-1,0-1.8,0.5-1.8,1.6c0,2.7,6.8,1.2,6.8,5.9    C226.4,52.2,224.7,54.1,221.7,54.1z"></path>		</g>		<polygon class="st2" points="125.2,9.3 128.1,15.1 134.5,16.1 129.8,20.7 131,27.2 125.2,24.2 119.3,27.2 120.4,20.7 115.7,16.1    122.3,15.1   "></polygon>		<polygon class="st2" points="148,9.3 150.9,15.1 157.4,16.1 152.7,20.7 153.8,27.2 148,24.2 142.2,27.2 143.3,20.7 138.5,16.1    145.1,15.1   "></polygon>		<polygon class="st2" points="170.8,9.3 173.7,15.1 180.3,16.1 175.6,20.7 176.6,27.2 170.8,24.2 165,27.2 166.1,20.7 161.5,16.1    167.9,15.1   "></polygon>		<polygon class="st2" points="193.7,9.3 196.6,15.1 203.1,16.1 198.4,20.7 199.5,27.2 193.7,24.2 187.8,27.2 188.9,20.7    184.3,16.1 190.8,15.1   "></polygon>		<polygon class="st2" points="216.5,9.3 219.4,15.1 226,16.1 221.2,20.7 222.3,27.2 216.5,24.2 210.7,27.2 211.9,20.7 207.1,16.1    213.6,15.1   "></polygon>	</g></g><g>	<polygon class="st3" points="4.5,16.9 4.5,16.9 13.5,24.1  "></polygon>	<polygon class="st3" points="4.5,16.9 4.5,16.9 4.5,16.9  "></polygon>	<path class="st2" d="M12.6,29.5c0-1.9,0.3-3.7,0.9-5.5l-9-7.2c-1.9,3.8-3,8.1-3,12.7c0,4.5,1.1,8.8,3,12.6l9.1-7.1  C13,33.3,12.6,31.5,12.6,29.5z"></path>	<path class="st4" d="M48.5,51l-9.1-6.8c0,0,0,0,0,0l-0.1-0.1c0,0,0.1,0,0.2-0.1c-2.7,1.8-6,2.9-9.5,2.9c-7.6,0-14.1-4.9-16.4-11.8  l-9.1,7.1C9.1,51.5,18.8,58,29.9,58C37.1,58,43.6,55.3,48.5,51L48.5,51C48.5,51,48.5,51,48.5,51z"></path>	<path class="st5" d="M29.9,12.2c4.2,0,8.1,1.5,11.1,4l0,0l7.7-8c-5-4.4-11.6-7.1-18.8-7.1C18.8,1.1,9.2,7.5,4.5,16.9l9,7.2  C15.9,17.3,22.4,12.2,29.9,12.2z"></path>	<path class="st6" d="M57.6,24.3l0-0.1H46.4h-5.8H29.7v10.9H40h5.5h0.6l0,0.4c-1.9,5.2-5.7,8-6.6,8.5c0,0,0,0,0,0l0,0l0.1,0.1  c-0.1,0.1-0.2,0.1-0.2,0.1c0,0,0,0,0,0l9.1,6.8c0,0,0,0,0,0l0,0c1.1-1,2.1-2,3.1-3.1c0.1-0.2,0.3-0.3,0.4-0.5  c0.2-0.3,0.4-0.5,0.6-0.8c0.4-0.5,0.8-1.1,1.2-1.7c0.1-0.1,0.1-0.2,0.2-0.2c0.2-0.4,0.5-0.8,0.7-1.2c0.1-0.1,0.1-0.2,0.2-0.3  c0.3-0.6,0.7-1.2,1-1.9c0.2-0.3,0.3-0.7,0.5-1.1c0.1-0.2,0.2-0.5,0.3-0.7c0.2-0.5,0.3-1,0.5-1.4c0.1-0.2,0.1-0.3,0.2-0.5  c0.2-0.7,0.4-1.4,0.5-2.1l0-0.4C58.8,28.5,57.6,24.4,57.6,24.3z"></path>	<path class="st6" d="M39.4,44.2c0,0,0.1,0,0.2-0.1L39.5,44l0,0c0,0,0,0,0,0c-0.1,0.1-0.2,0.1-0.2,0.1L39.4,44.2z"></path></g></svg>